<svg xmlns="http://www.w3.org/2000/svg" viewBox="0 0 265.84 106.74"><defs><style>.cls-1,.cls-6{fill:#fff;}.cls-2{fill:#f09400;}.cls-3{fill:#e86500;}.cls-4{fill:#e44a00;}.cls-5{fill:#ed8300;}.cls-6{font-size:10px;font-family:FuturaPT-Book, Futura PT;letter-spacing:0.01em;}</style></defs><title>PIDX-Logo</title><g id="Capa_1" data-name="Capa 1"><rect class="cls-1" x="74.36" y="1.03" width="12.83" height="84.67"/><path class="cls-1" d="M59.56,13.67H16V98.34H28.85V26.39H58.79c5.66,0,8.08,2.52,8.08,8.41v7.14c0,5.9-2.42,8.41-8.08,8.41H31.88V62.64H59.56c13.17,0,20.14-7.12,20.14-20.59v-7.8C79.7,20.79,72.73,13.67,59.56,13.67Z" transform="translate(-16.01 -12.63)"/><path class="cls-1" d="M159.4,13.67H117.94V98.34h12.84V26.39h27.74c7.87,0,11.38,3.58,11.38,11.6V74c0,8-3.51,11.59-11.38,11.59H133.81V98.34H159.4c15.26,0,23.33-8.22,23.33-23.78V37.44C182.73,21.89,174.66,13.67,159.4,13.67Z" transform="translate(-16.01 -12.63)"/><polygon class="cls-2" points="246.6 85.7 217.82 45.47 209.83 55.7 231.2 85.7 246.6 85.7"/><polygon class="cls-3" points="214.71 41.07 186.17 1.03 171.01 1.03 199.42 41.07 214.71 41.07"/><polygon class="cls-4" points="215.03 44.11 199.37 44.11 168.96 85.7 183.85 85.7 215.03 44.11"/><polygon class="cls-5" points="246.54 1.03 231.77 1.03 210.54 29.95 217.91 40.34 246.54 1.03"/><path class="cls-1" d="M17.88,107.37v11.31H16V107.37Z" transform="translate(-16.01 -12.63)"/><path class="cls-1" d="M30.75,118.68V106.6l8.76,8.6v-7.83h1.85v12l-8.76-8.6v7.9Z" transform="translate(-16.01 -12.63)"/><path class="cls-1" d="M57.58,109v9.69H55.73V109H53v-1.62h7.39V109Z" transform="translate(-16.01 -12.63)"/><path class="cls-1" d="M78.62,109H73.8v2.87h4.67v1.63H73.8v3.56h4.82v1.63H72V107.37h6.67Z" transform="translate(-16.01 -12.63)"/><path class="cls-1" d="M93.13,107.37a5.73,5.73,0,0,1,3.19.66,3.08,3.08,0,0,1,1.43,2.66,3.16,3.16,0,0,1-2.68,3.16l3.77,4.83H96.61l-3.46-4.63h-.33v4.63H91V107.37Zm-.31,5.19h.58c.51,0,2.58,0,2.58-1.85,0-1.6-1.62-1.75-2.52-1.75h-.64Z" transform="translate(-16.01 -12.63)"/><path class="cls-1" d="M110.62,118.68V106.6l8.76,8.6v-7.83h1.85v12l-8.76-8.6v7.9Z" transform="translate(-16.01 -12.63)"/><path class="cls-1" d="M141.2,116H136l-1.32,2.73h-2l6-12,5.72,12h-2Zm-.74-1.63-1.79-3.83-1.87,3.83Z" transform="translate(-16.01 -12.63)"/><path class="cls-1" d="M158.58,109v9.69h-1.85V109H154v-1.62h7.39V109Z" transform="translate(-16.01 -12.63)"/><path class="cls-1" d="M174.8,107.37v11.31H173V107.37Z" transform="translate(-16.01 -12.63)"/><path class="cls-1" d="M199.65,113a5.94,5.94,0,0,1-6.28,5.87c-3.62,0-6.29-2.54-6.29-5.87a6.3,6.3,0,0,1,12.57,0Zm-1.84,0a4.44,4.44,0,1,0-4.44,4.28A4.18,4.18,0,0,0,197.81,113Z" transform="translate(-16.01 -12.63)"/><path class="cls-1" d="M211.94,118.68V106.6l8.77,8.6v-7.83h1.85v12l-8.77-8.6v7.9Z" transform="translate(-16.01 -12.63)"/><path class="cls-1" d="M242.53,116h-5.17L236,118.68h-2l6-12,5.73,12h-2Zm-.75-1.63L240,110.49l-1.87,3.83Z" transform="translate(-16.01 -12.63)"/><path class="cls-1" d="M259.13,107.37v9.68h3.55v1.63h-5.4V107.37Z" transform="translate(-16.01 -12.63)"/></g><g id="Layer_2" data-name="Layer 2"><text class="cls-6" transform="translate(252.75 8.33)">TM</text></g></svg>